<svg width="512" height="512" viewBox="0 0 512 512" fill="none" xmlns="http://www.w3.org/2000/svg">
<rect width="512" height="512" fill="url(#paint0_linear_56_2)"/>
<path d="M230.709 366H102.607V146.659H230.709V189.053H154.831V231.139H225.18V273.533H154.831V322.992H230.709V366ZM435.208 252.95C435.208 277.936 430.498 298.826 421.077 315.619C411.656 332.413 398.14 345.008 380.527 353.405C362.914 361.802 341.922 366 317.551 366H251.503V146.659H323.695C346.837 146.659 366.703 150.755 383.292 158.947C400.085 167.139 412.885 179.12 421.692 194.89C430.703 210.454 435.208 229.808 435.208 252.95ZM381.141 254.794C381.141 239.843 378.991 227.555 374.69 217.93C370.594 208.304 364.348 201.136 355.951 196.426C347.759 191.715 337.519 189.36 325.231 189.36H303.727V322.992H320.623C341.308 322.992 356.565 317.36 366.396 306.096C376.226 294.627 381.141 277.526 381.141 254.794Z" fill="white"/>
<defs>
<linearGradient id="paint0_linear_56_2" x1="0" y1="0" x2="512" y2="524" gradientUnits="userSpaceOnUse">
<stop/>
<stop offset="1" stop-color="#1E2658"/>
</linearGradient>
</defs>
</svg>
